<mxfile host="app.diagrams.net" modified="2023-06-26T21:36:00.783Z" agent="Mozilla/5.0 (Windows NT 10.0; Win64; x64; rv:109.0) Gecko/20100101 Firefox/114.0" etag="trnFWs6X9q_5XBNAXUnj" version="21.5.0" type="device">
  <diagram name="Page-1" id="BJvwKPNG5u8RdT-HtZbO">
    <mxGraphModel dx="1434" dy="782" grid="1" gridSize="10" guides="1" tooltips="1" connect="1" arrows="1" fold="1" page="1" pageScale="1" pageWidth="850" pageHeight="1100" math="0" shadow="0">
      <root>
        <mxCell id="0" />
        <mxCell id="1" parent="0" />
        <mxCell id="lFHE-NaxA0UJQqsjbWMi-1" value="sign in" style="rounded=0;whiteSpace=wrap;html=1;" vertex="1" parent="1">
          <mxGeometry x="680" y="20" width="120" height="60" as="geometry" />
        </mxCell>
        <mxCell id="lFHE-NaxA0UJQqsjbWMi-2" value="word 1 | word 2 | something else" style="rounded=1;whiteSpace=wrap;html=1;arcSize=50;" vertex="1" parent="1">
          <mxGeometry x="290" y="20" width="200" height="60" as="geometry" />
        </mxCell>
        <mxCell id="lFHE-NaxA0UJQqsjbWMi-3" value="" style="endArrow=none;html=1;rounded=0;" edge="1" parent="1">
          <mxGeometry width="50" height="50" relative="1" as="geometry">
            <mxPoint x="40" y="120" as="sourcePoint" />
            <mxPoint x="810" y="120" as="targetPoint" />
          </mxGeometry>
        </mxCell>
        <mxCell id="lFHE-NaxA0UJQqsjbWMi-4" value="&lt;div&gt;Logo&lt;/div&gt;" style="ellipse;whiteSpace=wrap;html=1;" vertex="1" parent="1">
          <mxGeometry x="20" y="10" width="120" height="80" as="geometry" />
        </mxCell>
        <mxCell id="lFHE-NaxA0UJQqsjbWMi-5" value="Icon 1" style="rounded=0;whiteSpace=wrap;html=1;" vertex="1" parent="1">
          <mxGeometry x="50" y="160" width="50" height="40" as="geometry" />
        </mxCell>
        <mxCell id="lFHE-NaxA0UJQqsjbWMi-7" value="Icon 1" style="rounded=0;whiteSpace=wrap;html=1;" vertex="1" parent="1">
          <mxGeometry x="130" y="160" width="50" height="40" as="geometry" />
        </mxCell>
        <mxCell id="lFHE-NaxA0UJQqsjbWMi-8" value="Icon 1" style="rounded=0;whiteSpace=wrap;html=1;" vertex="1" parent="1">
          <mxGeometry x="210" y="160" width="50" height="40" as="geometry" />
        </mxCell>
        <mxCell id="lFHE-NaxA0UJQqsjbWMi-9" value="Icon 1" style="rounded=0;whiteSpace=wrap;html=1;" vertex="1" parent="1">
          <mxGeometry x="290" y="160" width="50" height="40" as="geometry" />
        </mxCell>
        <mxCell id="lFHE-NaxA0UJQqsjbWMi-10" value="Icon 1" style="rounded=0;whiteSpace=wrap;html=1;" vertex="1" parent="1">
          <mxGeometry x="380" y="160" width="50" height="40" as="geometry" />
        </mxCell>
        <mxCell id="lFHE-NaxA0UJQqsjbWMi-11" value="Icon 1" style="rounded=0;whiteSpace=wrap;html=1;" vertex="1" parent="1">
          <mxGeometry x="460" y="160" width="50" height="40" as="geometry" />
        </mxCell>
        <mxCell id="lFHE-NaxA0UJQqsjbWMi-12" value="Icon 1" style="rounded=0;whiteSpace=wrap;html=1;" vertex="1" parent="1">
          <mxGeometry x="560" y="160" width="50" height="40" as="geometry" />
        </mxCell>
        <mxCell id="lFHE-NaxA0UJQqsjbWMi-13" value="Icon 1" style="rounded=0;whiteSpace=wrap;html=1;" vertex="1" parent="1">
          <mxGeometry x="640" y="160" width="50" height="40" as="geometry" />
        </mxCell>
        <mxCell id="lFHE-NaxA0UJQqsjbWMi-15" value="Icon 1" style="rounded=0;whiteSpace=wrap;html=1;" vertex="1" parent="1">
          <mxGeometry x="730" y="160" width="50" height="40" as="geometry" />
        </mxCell>
        <mxCell id="lFHE-NaxA0UJQqsjbWMi-16" value="Price Filter" style="rounded=0;whiteSpace=wrap;html=1;" vertex="1" parent="1">
          <mxGeometry x="310" y="240" width="220" height="50" as="geometry" />
        </mxCell>
        <mxCell id="lFHE-NaxA0UJQqsjbWMi-18" value="Pic 1" style="whiteSpace=wrap;html=1;aspect=fixed;" vertex="1" parent="1">
          <mxGeometry x="40" y="350" width="220" height="220" as="geometry" />
        </mxCell>
        <mxCell id="lFHE-NaxA0UJQqsjbWMi-19" value="pic 2" style="whiteSpace=wrap;html=1;aspect=fixed;" vertex="1" parent="1">
          <mxGeometry x="280" y="350" width="220" height="220" as="geometry" />
        </mxCell>
        <mxCell id="lFHE-NaxA0UJQqsjbWMi-20" value="pic 3" style="whiteSpace=wrap;html=1;aspect=fixed;" vertex="1" parent="1">
          <mxGeometry x="530" y="350" width="220" height="220" as="geometry" />
        </mxCell>
      </root>
    </mxGraphModel>
  </diagram>
</mxfile>
